<svg width="20" height="20" viewBox="0 0 20 20" fill="none" xmlns="http://www.w3.org/2000/svg">
<path d="M15 11.6667C14.0795 11.6667 13.3333 10.9205 13.3333 10C13.3333 9.07957 14.0795 8.33337 15 8.33337C15.9205 8.33337 16.6667 9.07957 16.6667 10C16.6667 10.4421 16.4911 10.866 16.1785 11.1786C15.866 11.4911 15.442 11.6667 15 11.6667ZM10 11.6667C9.07954 11.6667 8.33334 10.9205 8.33334 10C8.33334 9.07957 9.07954 8.33337 10 8.33337C10.9205 8.33337 11.6667 9.07957 11.6667 10C11.6667 10.4421 11.4911 10.866 11.1785 11.1786C10.866 11.4911 10.442 11.6667 10 11.6667ZM5.00001 11.6667C4.07954 11.6667 3.33334 10.9205 3.33334 10C3.33334 9.07957 4.07954 8.33337 5.00001 8.33337C5.92048 8.33337 6.66668 9.07957 6.66668 10C6.66668 10.4421 6.49108 10.866 6.17852 11.1786C5.86596 11.4911 5.44204 11.6667 5.00001 11.6667Z" fill="#1A1D1E"/>
</svg>
