<svg width="20" height="20" viewBox="0 0 20 20" fill="none" xmlns="http://www.w3.org/2000/svg">
<path d="M19 1L19.6894 1.29544C19.8102 1.01356 19.7472 0.686524 19.5303 0.46967C19.3135 0.252815 18.9864 0.189835 18.7046 0.310641L19 1ZM1 8.71429L0.704561 8.02493C0.445686 8.13587 0.270792 8.3825 0.251721 8.6635C0.23265 8.9445 0.372618 9.2125 0.614128 9.35741L1 8.71429ZM11.2857 19L10.6426 19.3859C10.7875 19.6274 11.0555 19.7673 11.3365 19.7483C11.6175 19.7292 11.8641 19.5543 11.9751 19.2954L11.2857 19ZM18.7046 0.310641L0.704561 8.02493L1.29544 9.40364L19.2954 1.68936L18.7046 0.310641ZM0.614128 9.35741L7.0427 13.2145L7.81444 11.9283L1.38587 8.07117L0.614128 9.35741ZM6.78545 12.9573L10.6426 19.3859L11.9288 18.6141L8.07169 12.1856L6.78545 12.9573ZM11.9751 19.2954L19.6894 1.29544L18.3106 0.704561L10.5964 18.7046L11.9751 19.2954ZM18.4697 0.46967L6.89824 12.0411L7.9589 13.1018L19.5303 1.53033L18.4697 0.46967Z" fill="url(#paint0_linear_3510_1858)"/>
<defs>
<linearGradient id="paint0_linear_3510_1858" x1="9.9917" y1="33.8323" x2="9.9917" y2="-11.7716" gradientUnits="userSpaceOnUse">
<stop stop-color="#3EB5F1"/>
<stop offset="1" stop-color="#46CBC6"/>
</linearGradient>
</defs>
</svg>
