<svg width="24" height="24" viewBox="0 0 24 24" fill="none" xmlns="http://www.w3.org/2000/svg">
<path d="M19.827 5.45893C19.827 3.64074 18.3858 2.15515 16.6341 2.15515C14.2616 2.15515 12.8204 3.92899 12 5.45893C11.1796 3.92899 9.73832 2.15515 7.36581 2.15515C5.61414 2.15515 4.17289 3.64074 4.17289 5.45893C4.17392 6.00592 4.30301 6.54507 4.54983 7.03321H1.99994V12.7982H3.24163V21.8448H20.7583V12.7982H22V7.03321H19.4501C19.6969 6.54507 19.826 6.00592 19.827 5.45893ZM13.796 5.90239C14.5942 4.59418 15.5476 3.92899 16.6341 3.92899C17.0243 3.94629 17.3919 4.11653 17.6575 4.40286C17.9231 4.68919 18.0652 5.06858 18.0532 5.45893C18.0532 6.3015 17.388 7.03321 16.6341 7.03321H13.2195C13.3851 6.64333 13.5778 6.26547 13.796 5.90239ZM5.94673 5.45893C5.93469 5.06858 6.07684 4.68919 6.34243 4.40286C6.60801 4.11653 6.97565 3.94629 7.36581 3.92899C9.18399 3.92899 10.2705 5.79152 10.7804 7.03321H7.36581C6.61192 7.03321 5.94673 6.3015 5.94673 5.45893ZM3.77378 8.80705H11.113V11.0244H3.77378V8.80705ZM5.01547 20.0709V12.7982H11.113V20.0709H5.01547ZM18.9845 20.0709H12.8869V12.7982H18.9845V20.0709ZM20.2261 11.0244H12.8869V8.80705H20.2261V11.0244Z" fill="#8398A2"/>
</svg>
