<svg width="16" height="17" viewBox="0 0 16 17" fill="none" xmlns="http://www.w3.org/2000/svg">
<path d="M10.0885 9.9976C10.4519 10.305 10.7948 10.5959 11.0984 10.8747L11.0969 10.8777C11.3813 10.6178 11.699 10.3493 12.035 10.0652L12.0616 10.0428L12.1448 9.97198L12.1492 9.96828C13.8501 8.53573 15.9655 6.75407 15.9655 4.54667C15.9656 3.81799 15.6818 3.1199 15.1781 2.60964C14.6743 2.09937 13.993 1.81984 13.2875 1.83401C12.4524 1.83188 11.6562 2.19752 11.0984 2.8392C10.5407 2.19736 9.74433 1.83169 8.90927 1.83401C8.20301 1.81821 7.52035 2.0968 7.01537 2.60692C6.51039 3.11704 6.22566 3.81568 6.22543 4.54516C6.22543 5.06073 6.3409 5.55266 6.53944 6.02203C6.63717 6.01271 6.73569 6.00811 6.83473 6.00837C7.59063 5.99311 8.32067 6.29414 8.8604 6.84366C9.40013 7.39317 9.70416 8.14496 9.70402 8.92969C9.70402 9.16417 9.68196 9.39419 9.64046 9.61984C9.76575 9.72622 9.88983 9.83076 10.0118 9.93349L10.0199 9.94033L10.0885 9.9976Z" fill="#8398A2"/>
<path d="M4.48883 15.062C4.2092 14.8038 3.89328 14.5345 3.55853 14.2499L3.49535 14.1969L3.48787 14.1905C1.93371 12.8744 0 11.2368 0 9.20148C0.00020898 8.52605 0.262501 7.87918 0.727674 7.40686C1.19285 6.93455 1.8217 6.67659 2.47229 6.69123C3.24152 6.68908 3.97511 7.02765 4.48883 7.62193C5.00265 7.0278 5.73617 6.68926 6.50538 6.69123C7.15527 6.67811 7.78293 6.93693 8.24697 7.40938C8.71101 7.88183 8.97241 8.52819 8.97228 9.20287C8.97228 11.2467 7.02362 12.8963 5.45679 14.2227L5.45274 14.2262L5.37611 14.2917L5.35167 14.3125C5.0421 14.5755 4.74946 14.8241 4.48749 15.0648L4.48883 15.062Z" fill="#8398A2"/>
</svg>
